<?xml version="1.0" encoding="UTF-8" standalone="no"?>
<!-- Created with Inkscape (http://www.inkscape.org/) -->

<svg
   xmlns:dc="http://purl.org/dc/elements/1.1/"
   xmlns:cc="http://creativecommons.org/ns#"
   xmlns:rdf="http://www.w3.org/1999/02/22-rdf-syntax-ns#"
   xmlns:svg="http://www.w3.org/2000/svg"
   xmlns="http://www.w3.org/2000/svg"
   xmlns:sodipodi="http://sodipodi.sourceforge.net/DTD/sodipodi-0.dtd"
   xmlns:inkscape="http://www.inkscape.org/namespaces/inkscape"
   version="1.1"
   id="svg2"
   width="601.17194"
   height="601.07013"
   viewBox="0 0 601.17194 601.07016"
   sodipodi:docname="Amplience-star.svg"
   inkscape:version="0.92.2 2405546, 2018-03-11">
  <metadata
     id="metadata8">
    <rdf:RDF>
      <cc:Work
         rdf:about="">
        <dc:format>image/svg+xml</dc:format>
        <dc:type
           rdf:resource="http://purl.org/dc/dcmitype/StillImage" />
        <dc:title></dc:title>
      </cc:Work>
    </rdf:RDF>
  </metadata>
  <defs
     id="defs6" />
  <sodipodi:namedview
     pagecolor="#ffffff"
     bordercolor="#666666"
     borderopacity="1"
     objecttolerance="10"
     gridtolerance="10"
     guidetolerance="10"
     inkscape:pageopacity="0"
     inkscape:pageshadow="2"
     inkscape:window-width="1366"
     inkscape:window-height="703"
     id="namedview4"
     showgrid="false"
     inkscape:zoom="0.54279609"
     inkscape:cx="564.87549"
     inkscape:cy="407.51367"
     inkscape:window-x="0"
     inkscape:window-y="0"
     inkscape:window-maximized="1"
     inkscape:current-layer="svg2"
     fit-margin-top="0"
     fit-margin-left="0"
     fit-margin-right="0"
     fit-margin-bottom="0" />
  <g
     id="g98"
     transform="translate(-130.42578,-301.81942)">
    <path
       style="fill:#e2a8ce;stroke-width:1.33333325"
       d="m 380.92146,901.88873 c -0.0456,-3.65801 -24.02244,-151.47936 -24.67613,-152.13306 -0.45021,-0.45021 -9.04304,3.37055 -19.09517,8.49059 -10.05214,5.12002 -41.20358,20.9886 -69.22542,35.26348 -37.81496,19.26368 -51.33645,25.56668 -52.45256,24.45057 -1.11609,-1.11609 7.38542,-18.96643 32.97902,-69.245 18.9655,-37.25769 34.66724,-68.75521 34.89272,-69.99448 0.51078,-2.80724 7.38789,-1.4889 -79.02123,-15.14834 -39.56952,-6.25511 -72.56952,-12.00824 -73.33333,-12.78476 -0.96603,-0.98209 -0.69997,-1.92088 0.87408,-3.08419 1.24456,-0.91978 32.2822,-16.92938 68.97254,-35.5769 36.69034,-18.64751 66.72207,-34.49498 66.73718,-35.21659 0.0151,-0.72161 -24.69907,-26.06509 -54.92038,-56.31884 -42.71998,-42.76585 -54.59196,-55.36268 -53.34872,-56.60592 1.79547,-1.79546 1.65098,-1.81509 95.91956,13.02851 31.69267,4.99035 58.00967,8.68672 58.48223,8.21415 0.68701,-0.68702 -20.31688,-138.71329 -22.83131,-150.03514 -0.44742,-2.0146 0.0528,-3.30771 1.49346,-3.86054 1.58788,-0.60933 16.8583,13.85763 57.19652,54.18707 l 55.0303,55.01832 12.00059,-23.15779 c 6.60032,-12.73679 22.63388,-44.04075 35.63015,-69.56437 18.06489,-35.47803 24.14908,-46.30832 25.83564,-45.98927 2.51556,0.4759 2.00234,-2.29034 16.85748,90.86271 5.36194,33.62344 10.25889,61.62349 10.88212,62.22233 0.62322,0.59885 31.43314,-14.43883 68.46648,-33.41705 37.03333,-18.97823 68.38333,-34.52827 69.66666,-34.55567 1.28334,-0.0273 2.33334,0.56285 2.33334,1.31165 0,0.7488 -15.63706,32.03175 -34.749,69.51767 -19.11196,37.4859 -34.26196,68.62042 -33.66667,69.1878 0.59528,0.56738 9.48233,2.34048 19.749,3.94021 67.09869,10.45524 133.08357,21.29866 133.76715,21.98224 0.44286,0.44285 0.22642,1.71288 -0.48098,2.82226 -0.7074,1.1094 -31.28617,17.34018 -67.95284,36.06839 -36.66666,18.72823 -67.21105,34.56615 -67.8764,35.19537 -0.69998,0.66199 21.63291,24.24123 53,55.95779 29.81535,30.14754 54.20974,55.67317 54.20974,56.7236 0,1.1152 -1.30228,1.90988 -3.1298,1.90988 -1.7214,0 -35.1714,-5.09628 -74.33334,-11.32507 -39.16194,-6.22877 -72.9012,-11.32877 -74.97614,-11.33333 -3.40999,-0.008 -3.70043,0.34417 -3.02174,3.6584 0.68414,3.34085 8.81556,54.23383 19.51684,122.15221 3.05456,19.38654 3.77691,26.88171 2.69498,27.96365 -1.08194,1.08193 -16.23743,-13.27797 -56.54344,-53.57521 -42.21035,-42.20116 -55.38496,-54.64332 -56.43452,-53.297 -0.75307,0.96598 -13.83078,26.35634 -29.06159,56.42301 -41.43907,81.80357 -40.82463,80.66666 -43.59644,80.66666 -1.34648,0 -2.45376,-0.45 -2.46063,-1 z"
       id="path38"
       inkscape:connector-curvature="0"
       sodipodi:nodetypes="cccssscsccscscscccscsscscscssccccscsssscsscscssc" />
    <path
       sodipodi:nodetypes="sssssscsccssssssscscscscssscscscscscscssscss"
       style="fill:#eb65a3;stroke-width:1.33333325"
       d="m 382.26728,899.49103 c 0,-0.5243 -1.50942,-10.3243 -3.35426,-21.77779 -1.84484,-11.45348 -7.19386,-45.04353 -11.88673,-74.64456 -4.69285,-29.60104 -9.07972,-54.36731 -9.74859,-55.03618 -0.7326,-0.7326 -28.28574,12.5814 -69.30037,33.48673 -37.44635,19.08656 -68.79049,34.70284 -69.65367,34.70284 -0.8989,0 -1.24069,-0.99688 -0.8,-2.33333 0.42319,-1.28334 16.04784,-32.33334 34.72146,-69 18.67362,-36.66667 33.96781,-67.369 33.9871,-68.22739 0.0193,-0.8584 -1.61494,-1.89833 -3.63161,-2.31096 -3.04485,-0.623 -84.24868,-13.55378 -136,-21.65643 -7.51667,-1.17688 -13.66667,-2.56906 -13.66667,-3.09374 0,-1.01577 5.18888,-3.71985 85.66667,-44.64341 28.41667,-14.45009 51.66667,-26.97959 51.66667,-27.84332 0,-0.86373 -24.3,-25.86487 -54,-55.55808 -45.91056,-45.90006 -56.58898,-57.33333 -53.54802,-57.33333 0.2486,0 34.57904,5.38956 76.28988,11.97679 41.71084,6.58724 76.23979,11.53724 76.73099,11 0.4912,-0.53723 -4.43831,-34.27679 -10.95444,-74.97679 -6.51615,-40.7 -11.69849,-75.37509 -11.51631,-77.05575 0.272,-2.50939 10.10572,6.73395 54.9979,51.69606 30.06666,30.11349 55.46737,54.58859 56.44601,54.38909 0.97865,-0.1995 17.39425,-30.96273 36.47913,-68.36273 19.08488,-37.4 34.94418,-68.26 35.24287,-68.57777 1.94245,-2.06651 4.26448,9.86973 14.99796,77.09618 6.60229,41.35179 12.59112,75.77201 13.30851,76.4894 1.2278,1.2278 17.9999,-7.04064 109.78744,-54.12381 14.44405,-7.4092 26.57958,-13.1536 26.96785,-12.76535 0.38825,0.38827 -9.49768,20.7704 -21.96875,45.29364 -43.48097,85.50139 -45.90041,90.48359 -44.56037,91.76032 0.71464,0.68089 34.29935,6.43525 74.63268,12.78748 81.33839,12.81024 79.62471,12.49913 79.00989,14.34354 -0.24176,0.72531 -30.57028,16.73608 -67.39668,35.5795 -36.82641,18.84341 -67.68837,34.99202 -68.58214,35.8858 -1.27784,1.27784 10.17718,13.42985 53.61338,56.8755 30.38114,30.38776 54.86744,55.62145 54.41402,56.07488 -0.45344,0.45343 -35.46492,-4.65509 -77.80331,-11.35225 -42.33839,-6.69718 -77.46255,-11.69302 -78.05368,-11.10188 -0.59115,0.59114 4.2434,34.6733 10.74341,75.73813 6.50002,41.06484 11.5479,74.93695 11.21752,75.27137 -0.33038,0.33442 -24.86776,-23.65348 -54.52749,-53.30644 -47.82879,-47.81784 -54.15196,-53.68931 -55.91799,-51.92328 -1.09514,1.09515 -17.45448,32.24827 -36.35405,69.22915 -29.46193,57.64829 -37.69621,72.3553 -37.69621,67.32817 z"
       id="path36"
       inkscape:connector-curvature="0" />
    <path
       sodipodi:nodetypes="scsssscccscsccscsssccssscsscccscscscscccscs"
       style="fill:#9d9fa5;stroke-width:1.33333325"
       d="m 383.60061,898.23064 c 0,-2.78853 -22.78271,-145.73003 -23.69657,-148.67523 -0.64602,-2.08194 -2.02338,-3.33334 -3.66887,-3.33334 -1.44901,0 -32.52775,15.20681 -69.06387,33.79292 -36.53612,18.58611 -66.69534,33.52687 -67.02052,33.20169 -0.32517,-0.32517 15.07758,-31.32242 34.22832,-68.88278 19.15075,-37.56036 34.60999,-68.49088 34.35387,-68.73448 -0.37647,-0.35807 -73.08109,-12.07237 -142.85128,-23.01646 -7.17874,-1.12606 -12.87067,-2.59211 -12.64875,-3.25788 0.413,-1.239 55.22247,-29.39822 109.27412,-56.1413 16.6319,-8.22893 30.2819,-15.55256 30.33334,-16.27472 0.0515,-0.72216 -24.65646,-26.04761 -54.90646,-56.27879 -30.25,-30.23119 -53.8,-54.69838 -52.33333,-54.37155 13.33581,2.97175 149.22469,23.26943 150.06995,22.41591 0.6096,-0.61558 -4.2783,-35.01922 -10.86199,-76.45255 -6.58369,-41.43333 -11.79881,-76.4081 -11.58916,-77.72173 0.26789,-1.67848 16.82187,14.07491 55.69347,53 30.42174,30.46363 55.97366,55.3884 56.78202,55.3884 1.66067,0 1.34243,0.60115 41.99674,-79.33333 16.41066,-32.26667 30.00958,-57.76667 30.21981,-56.66667 3.22809,16.8911 23.99271,151.50884 23.4944,152.31512 -0.37831,0.61212 -12.03925,6.79464 -25.9132,13.73892 -13.87396,6.94428 -25.22537,13.08422 -25.22537,13.64432 0,0.56008 5.85,6.83554 13,13.94546 l 13,12.92712 16,2.57506 c 8.8,1.41628 29.8,4.77454 46.66666,7.46282 16.86667,2.68827 31.86667,5.42144 33.33334,6.07372 2.15109,0.95667 46.02154,8.09975 146,23.77204 3.3,0.51729 5.92898,1.52664 5.84218,2.24297 -0.0868,0.71635 -30.22058,16.60244 -66.964,35.30244 -36.7434,18.7 -66.82238,34.59735 -66.84218,35.32746 -0.0197,0.73009 24.98766,26.35642 55.57214,56.94741 30.58447,30.59097 55.23714,55.99096 54.78368,56.44441 -0.45344,0.45345 -35.2271,-4.54908 -77.2748,-11.11672 -42.04769,-6.56765 -81.55036,-12.63169 -87.78369,-13.47565 -6.23333,-0.84398 -20.17773,-2.90666 -30.98756,-4.58374 -10.80984,-1.67709 -20.16576,-2.71038 -20.79095,-2.29621 -0.62518,0.41417 -6.13001,10.56553 -12.23294,22.55857 -6.10292,11.99306 -12.45031,23.8009 -14.1053,26.23966 -1.65498,2.43876 -18.73036,35.22626 -37.94526,72.86113 -19.21491,37.63485 -35.1616,68.67701 -35.4371,68.98257 -0.27549,0.30554 -0.50089,0.0594 -0.50089,-0.54699 z"
       id="path34"
       inkscape:connector-curvature="0" />
    <path
       sodipodi:nodetypes="scsssscscscssssscssssccssscsscccscscscscccscs"
       style="fill:#a0559f;stroke-width:1.33333325"
       d="m 383.32402,899.56431 c 0,-2.78853 -22.78271,-145.73003 -23.69657,-148.67523 -0.64602,-2.08194 -2.02338,-3.33334 -3.66887,-3.33334 -1.44901,0 -32.52775,15.20681 -69.06387,33.79292 -36.53612,18.58611 -66.69534,33.52687 -67.02052,33.20169 -0.32517,-0.32517 15.07758,-31.32242 34.22832,-68.88278 19.15075,-37.56036 34.59336,-68.51776 34.31691,-68.79421 -1.34699,-1.34698 -16.61724,-4.10102 -63.0954,-11.37944 -83.90947,-13.14012 -86.5992,-13.58363 -88.50212,-14.59292 -1.17515,-0.62328 12.97511,-8.53083 39.33333,-21.98051 85.4667,-43.61066 96.48852,-49.39914 96.49523,-50.67776 0.004,-0.72216 -24.74311,-26.04761 -54.99311,-56.27879 -30.25,-30.23119 -53.8,-54.69838 -52.33333,-54.37155 1.46667,0.32683 35.58303,5.75593 75.81412,12.06468 47.25572,7.41028 73.60524,11.01265 74.44076,10.17713 0.83552,-0.83552 -2.75941,-26.95324 -10.15615,-73.78587 -6.2972,-39.87092 -11.79322,-74.14257 -12.21337,-76.15924 -0.53115,-2.54944 -0.22192,-3.66667 1.01487,-3.66667 0.97833,0 26.07322,24.3 55.76644,54 29.69321,29.7 54.64234,54 55.44252,54 1.64466,0 1.35185,0.55333 41.98184,-79.33333 16.41066,-32.26667 30.00958,-57.76667 30.21981,-56.66667 3.22809,16.8911 23.99271,151.50884 23.4944,152.31512 -0.37831,0.61212 -12.03925,6.79464 -25.9132,13.73892 -13.87396,6.94428 -25.22537,13.08422 -25.22537,13.64432 0,0.56008 5.85,6.83554 13,13.94546 l 13,12.92712 16,2.57506 c 8.8,1.41628 29.8,4.77454 46.66666,7.46282 16.86667,2.68827 31.86667,5.42144 33.33334,6.07372 2.15109,0.95667 46.02154,8.09975 146,23.77204 3.3,0.51729 5.92898,1.52664 5.84218,2.24297 -0.0868,0.71635 -30.22058,16.60244 -66.964,35.30244 -36.7434,18.7 -66.82238,34.63784 -66.84218,35.41743 -0.0197,0.77959 24.48133,26.27959 54.44696,56.66666 43.14886,43.75572 53.89709,55.32779 51.66666,55.62682 -1.54896,0.20766 -18.11629,-2.04379 -36.81629,-5.00324 -45.1998,-7.1533 -109.90755,-16.90299 -124,-18.6834 -6.23333,-0.78752 -20.17773,-2.80402 -30.98756,-4.4811 -10.80984,-1.67709 -20.16576,-2.71038 -20.79095,-2.29621 -0.62518,0.41417 -6.13001,10.56553 -12.23294,22.55857 -6.10292,11.99306 -12.45031,23.8009 -14.1053,26.23966 -1.65498,2.43876 -18.73036,35.22626 -37.94526,72.86113 -19.21491,37.63485 -35.1616,68.67701 -35.4371,68.98257 -0.27549,0.30554 -0.50089,0.0594 -0.50089,-0.54699 z"
       id="path32"
       inkscape:connector-curvature="0" />
    <path
       style="fill:#7d8287;stroke-width:1.33333325"
       d="m 382.99269,893.22207 c -0.36229,-1.65 -5.74304,-35.25765 -11.95721,-74.68367 -6.21419,-39.42602 -11.64828,-72.24962 -12.07579,-72.94134 -1.04543,-1.69153 3.01175,-3.63661 -71.79148,34.41793 -36.53441,18.58611 -66.69123,33.52789 -67.01513,33.20399 -0.32392,-0.32391 15.31926,-31.79896 34.76262,-69.94453 19.44338,-38.14559 35.35158,-70.0293 35.35158,-70.85267 0,-0.82337 5.4,-11.9156 12,-24.64938 6.6,-12.73379 12,-24.2723 12,-25.64114 0,-2.79896 -17.50388,-21.14205 -95.66884,-100.25566 -29.81026,-30.17204 -52.84854,-54.4984 -51.82359,-54.72107 1.01488,-0.22048 34.33367,4.72952 74.04175,11 39.70806,6.27048 73.37869,11.40088 74.82358,11.40088 3.50552,0 3.46587,-0.6712 -2.08686,-35.33333 -12.03331,-75.11602 -17.95271,-113.06821 -17.95271,-115.10351 0,-1.2196 24.15275,21.92975 53.67276,51.44302 29.52003,29.51327 54.57003,53.64817 55.66667,53.63312 1.28368,-0.0176 14.24209,-24.22279 36.37946,-67.95357 30.75551,-60.75532 36.94778,-72.22219 36.94778,-68.41999 0,0.59938 5.35485,34.66513 11.89966,75.70169 6.54482,41.03655 11.59623,75.10287 11.22538,75.70293 -0.37087,0.60008 -12.02572,6.77274 -25.89967,13.71702 -13.87396,6.94428 -25.22537,13.08422 -25.22537,13.64432 0,0.56008 5.85,6.83554 13,13.94546 l 13,12.92712 16,2.57506 c 8.8,1.41628 29.8,4.77454 46.66666,7.46282 16.86667,2.68827 31.86667,5.42144 33.33334,6.07372 2.15109,0.95667 46.02154,8.09975 146,23.77204 3.3,0.51729 5.92848,1.52664 5.84106,2.24297 -0.0875,0.71635 -30.37836,16.72527 -67.31321,35.57539 -36.93484,18.85011 -67.38763,34.97304 -67.67285,35.82872 -0.28523,0.85569 23.67932,25.75925 53.25456,55.34125 29.57524,29.582 53.44081,54.11783 53.03458,54.52404 -0.61852,0.61852 -46.2727,-6.34983 -134.90734,-20.59133 -9.40311,-1.51086 -17.50311,-2.50276 -18,-2.20424 -0.49691,0.29853 -13.47763,-1.42644 -28.84604,-3.83326 -15.36842,-2.40681 -28.56842,-4.0826 -29.33334,-3.72396 -0.76492,0.35866 -6.36304,10.74128 -12.44028,23.07254 -6.07724,12.33124 -12.48722,24.53902 -14.24444,27.12841 -1.7572,2.58939 -18.6849,35.03798 -37.61714,72.10801 -18.93223,37.07001 -34.8608,67.40232 -35.39683,67.40512 -0.53603,0.003 -1.27101,-1.34492 -1.63332,-2.99492 z"
       id="path30"
       inkscape:connector-curvature="0"
       sodipodi:nodetypes="cssscssssscssssscssscssscsscccscscscscscscc" />
    <path
       style="fill:#e8038a;stroke-width:1.33333325"
       d="m 382.99269,893.22207 c -0.36229,-1.65 -5.74304,-35.25765 -11.95721,-74.68367 -6.21419,-39.42602 -11.64828,-72.24962 -12.07579,-72.94134 -1.04543,-1.69153 3.01175,-3.63661 -71.79148,34.41793 -36.53441,18.58611 -66.69123,33.52789 -67.01513,33.20399 -0.32392,-0.32391 15.31926,-31.79896 34.76262,-69.94453 19.44338,-38.14559 35.35158,-70.0293 35.35158,-70.85267 0,-0.82337 5.4,-11.9156 12,-24.64938 6.6,-12.73379 12,-24.2723 12,-25.64114 0,-2.79896 -17.50388,-21.14205 -95.66884,-100.25566 -29.81026,-30.17204 -52.84854,-54.4984 -51.82359,-54.72107 1.01488,-0.22048 34.33367,4.72952 74.04175,11 39.70806,6.27048 73.37869,11.40088 74.82358,11.40088 3.50552,0 3.46587,-0.6712 -2.08686,-35.33333 -12.03331,-75.11602 -17.95271,-113.06821 -17.95271,-115.10351 0,-1.2196 24.15275,21.92975 53.67276,51.44302 29.52003,29.51327 54.57003,53.64817 55.66667,53.63312 1.28368,-0.0176 14.24209,-24.22279 36.37946,-67.95357 30.75551,-60.75532 36.94778,-72.22219 36.94778,-68.41999 0,0.59938 5.35485,34.66513 11.89966,75.70169 6.54482,41.03655 11.59623,75.10287 11.22538,75.70293 -0.37087,0.60008 -12.02572,6.77274 -25.89967,13.71702 -13.87396,6.94428 -25.22537,13.08422 -25.22537,13.64432 0,0.56008 5.85,6.83554 13,13.94546 l 13,12.92712 16,2.57506 c 8.8,1.41628 29.8,4.77454 46.66666,7.46282 16.86667,2.68827 31.86667,5.42144 33.33334,6.07372 2.15109,0.95667 46.02154,8.09975 146,23.77204 3.3,0.51729 5.92848,1.52664 5.84106,2.24297 -0.0875,0.71635 -30.37836,16.72527 -67.31321,35.57539 -36.93484,18.85011 -67.38763,34.97304 -67.67285,35.82872 -0.28523,0.85569 23.67932,25.75925 53.25456,55.34125 29.57524,29.582 53.44081,54.11783 53.03458,54.52404 -0.61852,0.61852 -46.2727,-6.34983 -134.90734,-20.59133 -9.40311,-1.51086 -17.50311,-2.50276 -18,-2.20424 -0.49691,0.29853 -13.47763,-1.42644 -28.84604,-3.83326 -15.36842,-2.40681 -28.56842,-4.0826 -29.33334,-3.72396 -0.76492,0.35866 -6.36304,10.74128 -12.44028,23.07254 -6.07724,12.33124 -12.48722,24.53902 -14.24444,27.12841 -1.7572,2.58939 -18.6849,35.03798 -37.61714,72.10801 -18.93223,37.07001 -34.8608,67.40232 -35.39683,67.40512 -0.53603,0.003 -1.27101,-1.34492 -1.63332,-2.99492 z"
       id="path28"
       inkscape:connector-curvature="0"
       sodipodi:nodetypes="cssscssssscssssscssscssscsscccscscscscscscc" />
    <path
       style="fill:#d8195c;stroke-width:1.33333325"
       d="m 382.99269,893.22207 c -0.36229,-1.65 -5.75167,-35.31195 -11.97639,-74.80433 -6.22472,-39.49238 -11.96173,-72.58037 -12.74893,-73.52888 -0.78719,-0.94851 -3.47916,-14.48505 -5.98216,-30.08121 -2.57799,-16.06335 -5.30243,-29.04019 -6.28443,-29.93335 -2.83552,-2.57901 -49.66586,-10.83728 -54.41404,-9.5956 -3.54233,0.92633 -2.02985,-2.93917 11.62996,-29.72329 l 11.89994,-23.33333 11.10137,11.66666 c 6.10575,6.41667 11.91464,11.66667 12.90865,11.66667 2.35354,0 2.28967,-4.28987 -0.29773,-20 -1.14737,-6.96667 -2.61401,-16.36765 -3.25917,-20.89107 -0.64516,-4.52342 -2.05092,-11.72342 -3.12392,-16 -1.83652,-7.3197 -3.30215,-15.99978 -8.23575,-48.77559 -4.10655,-27.28146 -4.93856,-32.48226 -6.55913,-41 -1.15806,-6.08678 -1.22612,-8.94147 -0.22866,-9.58979 1.51128,-0.98231 0.8378,-5.74272 -13.78773,-97.45594 -4.41868,-27.7085 -8.03396,-51.40572 -8.03396,-52.66049 0,-1.30211 23.0394,20.7527 53.67276,51.37906 29.52003,29.51327 54.57003,53.64817 55.66667,53.63312 1.28368,-0.0176 14.24209,-24.22279 36.37946,-67.95357 30.75551,-60.75532 36.94778,-72.22219 36.94778,-68.41999 0,0.59938 5.35485,34.66513 11.89966,75.70169 6.54482,41.03655 11.59623,75.10287 11.22538,75.70293 -0.37087,0.60008 -11.87572,6.77194 -25.56634,13.71526 -37.60321,19.0708 -52.56882,27.05308 -54.6814,29.16565 -1.66204,1.66204 -1.23257,2.09241 3.27142,3.27841 8.37034,2.2041 37.29552,6.74955 47.85128,7.51962 2.93333,0.21398 12.53333,1.63748 21.33333,3.16332 8.8,1.52582 30.1,5.08069 47.33333,7.89968 24.66146,4.03408 31.24032,5.52954 30.89648,7.02324 -0.24026,1.04378 -5.49026,12.20213 -11.66666,24.79631 -6.1764,12.59419 -11.22982,24.46539 -11.22982,26.38044 0,2.73019 4.31796,7.70203 20,23.02863 11,10.75068 20,20.47673 20,21.61345 0,1.13672 24.12362,26.1959 53.60803,55.68705 29.48443,29.49116 53.27568,53.95266 52.86945,54.35887 -0.61852,0.61852 -46.2727,-6.34983 -134.90734,-20.59133 -9.40311,-1.51086 -17.50311,-2.50276 -18,-2.20424 -0.49691,0.29853 -13.47763,-1.42644 -28.84604,-3.83326 -15.36842,-2.40681 -28.56842,-4.0826 -29.33334,-3.72396 -0.76492,0.35866 -6.36304,10.74128 -12.44028,23.07254 -6.07724,12.33124 -12.48722,24.53902 -14.24444,27.12841 -1.7572,2.58939 -18.6849,35.03798 -37.61714,72.10801 -18.93223,37.07001 -34.8608,67.40232 -35.39683,67.40512 -0.53603,0.003 -1.27101,-1.34492 -1.63332,-2.99492 z M 428.6147,710.23569 c 12.35143,-6.00203 15.29044,-9.34176 9.31924,-10.58987 -24.00706,-5.01797 -45.14778,-7.80929 -46.78041,-6.17667 -1.5298,1.5298 20.01749,22.71331 23.12784,22.73735 1.10775,0.008 7.55775,-2.67831 14.33333,-5.97081 z m 91.73134,-47.63716 13.81968,-6.95689 -0.83724,-8.04311 c -1.51338,-14.53851 -3.57434,-22.70979 -5.72787,-22.70979 -1.16681,0 -4.60284,4.9991 -8.24795,12 -12.92905,24.83196 -16.19625,32.66667 -13.6225,32.66667 0.4379,0 7.01505,-3.1306 14.61588,-6.95688 z"
       id="path26"
       inkscape:connector-curvature="0"
       sodipodi:nodetypes="cscsccscsscsssscssscssscscsccscssssscscscscscccscccccsscsc" />
    <path
       style="fill:#94258c;stroke-width:1.33333325"
       d="m 357.61097,744.23883 c -0.44753,-0.72412 -2.85287,-14.02261 -5.34519,-29.55221 -2.56561,-15.98631 -5.28352,-28.91963 -6.265,-29.81232 -2.83552,-2.57901 -49.66586,-10.83728 -54.41404,-9.5956 -3.54341,0.92663 -2.0282,-2.94404 11.63555,-29.72329 l 11.90552,-23.33333 10.55604,11.13952 c 5.80583,6.12673 13.26221,12.5254 16.56973,14.21926 5.62135,2.87882 11.51476,8.63208 56.22286,54.88577 7.21829,7.46783 13.12417,14.14436 13.12417,14.83674 0,0.69237 -0.75,1.85649 -1.66667,2.58694 -2.64013,2.1038 -48.70901,25.6651 -50.18238,25.6651 -0.7298,0 -1.69307,-0.59247 -2.14059,-1.31658 z m 310.65631,-10.70085 c -58.90542,-9.73161 -124.9609,-19.95967 -125.76923,-19.47412 -0.4936,0.29647 -13.49744,-1.43565 -28.89744,-3.84917 -19.06444,-2.98783 -28.75343,-3.9863 -30.36089,-3.12876 -1.29848,0.6927 -2.87154,0.94386 -3.49564,0.55814 -0.62412,-0.38573 -7.28868,-1.62562 -14.81014,-2.75533 -7.52145,-1.12971 -14.19841,-2.37727 -14.83768,-2.77236 -3.14065,-1.94103 -0.0913,-4.84091 11.17102,-10.62339 6.78333,-3.48281 17.1631,-8.90493 23.06616,-12.04913 5.90305,-3.14421 14.00305,-6.9992 18,-8.56665 11.08778,-4.34819 31.81896,-15.09925 32.49056,-16.8494 0.65609,-1.70977 -2.9967,-24.64671 -7.0824,-44.4724 -3.00126,-14.56348 -6.80766,-39.40347 -6.80766,-44.42576 0,-1.87928 0.59834,-3.78665 1.32964,-4.23863 0.7313,-0.45196 6.5813,4.70271 13,11.45483 6.4187,6.75213 21.12036,21.66291 32.67036,33.13507 11.55,11.47214 21,21.43488 21,22.1394 0,0.7045 24,25.2753 53.33334,54.60175 29.33333,29.32646 53.33333,53.77364 53.33333,54.32708 0,1.40667 -1.77739,1.21087 -27.33333,-3.01117 z M 331.01548,582.65396 c -0.54346,-1.66235 -1.92815,-10.36384 -6.80539,-42.76521 -4.10655,-27.28146 -4.93856,-32.48226 -6.55913,-41 -1.15806,-6.08678 -1.22612,-8.94147 -0.22866,-9.58979 1.51128,-0.98231 0.8378,-5.74272 -13.78773,-97.45594 -4.41868,-27.7085 -8.03396,-51.40572 -8.03396,-52.66049 0,-1.30211 23.0394,20.7527 53.67276,51.37906 29.52003,29.51327 54.33963,53.66049 55.15468,53.66049 2.21865,0 42.01195,40.12127 41.50341,41.84547 -0.24136,0.81833 -4.01454,3.31776 -8.38484,5.55428 -4.3703,2.23653 -12.14601,6.36757 -17.27934,9.18009 -5.13334,2.81251 -19.72834,10.36336 -32.43332,16.77965 -12.705,6.41631 -24.105,13.05962 -25.33334,14.76291 -1.22834,1.70329 -7.67168,13.92172 -14.31853,27.15205 -11.38468,22.66084 -15.50977,28.22552 -17.16661,23.15743 z"
       id="path24"
       inkscape:connector-curvature="0"
       sodipodi:nodetypes="csccscccsscscscsccscscscsscsssssscsscsssssccsasc" />
    <path
       style="fill:#7a3687;stroke-width:1.33333325"
       d="m 358.2407,743.52338 c -0.92754,-1.11761 -2.48901,-6.96761 -3.46994,-13 -2.1639,-13.30728 -2.16475,-13.32803 -0.50348,-12.30131 0.73333,0.45323 1.33333,0.25283 1.33333,-0.44532 0,-0.69816 -0.9,-1.61473 -2,-2.03685 -2.57205,-0.98699 -2.5862,-4.34091 -0.0225,-5.32471 1.08764,-0.41736 1.63798,-1.64366 1.22298,-2.72512 -0.41498,-1.08146 -1.60488,-1.63997 -2.64418,-1.24116 -1.27218,0.4882 -1.8896,-0.2185 -1.8896,-2.16288 0,-1.5884 0.6,-2.51718 1.33333,-2.06396 0.73333,0.45323 1.33333,-0.0472 1.33333,-1.11198 0,-1.06483 -0.9,-2.2814 -2,-2.70352 -2.21986,-0.85184 -2.76946,-4.85116 -0.66666,-4.85116 0.73333,0 1.33333,-0.9 1.33333,-2 0,-1.1 -0.45,-1.92895 -1,-1.84211 -2.84739,0.44959 -3.23783,-0.35667 -0.97427,-2.01183 2.20143,-1.60973 2.32019,-2.32629 0.9016,-5.43977 -0.8986,-1.9722 -2.2301,-7.88793 -2.95892,-13.14605 -1.44757,-10.44394 -3.32729,-16.29168 -6.39465,-19.89357 -2.40704,-2.8265 -1.31101,-2.96524 3.49245,-0.44212 4.61811,2.42574 66.93379,66.22138 66.93379,68.52341 0,0.69237 -0.75,1.85649 -1.66667,2.58694 -1.79214,1.42807 -48.47281,25.6651 -49.43116,25.6651 -0.31661,0 -1.33454,-0.91442 -2.26208,-2.03203 z m 320.63051,-23.63464 -5.2706,-5.66667 5.66667,5.2706 c 5.26994,4.9016 6.27937,6.06274 5.2706,6.06274 -0.21784,0 -2.76784,-2.55 -5.66667,-5.66667 z m -127.2706,-5 -4.66667,-0.98229 4.92131,-0.17552 c 2.70672,-0.0965 5.29213,0.42448 5.74536,1.15781 0.89391,1.44637 0.87143,1.44637 -6,0 z m -20,-3.96556 c -1.1,-0.72981 -4.1,-1.34011 -6.66667,-1.3562 -2.56666,-0.0161 -11.56666,-1.22129 -20,-2.67824 -18.96354,-3.27613 -22.66666,-3.36175 -22.66666,-0.52401 0,1.43282 -0.72007,1.86633 -2.17354,1.30858 -1.19545,-0.45873 -8.17241,-1.73508 -15.50436,-2.83632 -7.33194,-1.10124 -13.85385,-2.32552 -14.49312,-2.72061 -2.91608,-1.80223 -0.47048,-4.59296 7.83768,-8.94377 24.57535,-12.86963 46.13947,-23.6172 47.38596,-23.6172 0.76542,0 -0.95829,2.0919 -3.83048,4.64868 l -5.22214,4.64868 7.33333,-3.1759 c 4.03333,-1.74674 10.03333,-4.73142 13.33333,-6.63262 3.3,-1.9012 7.58582,-3.46395 9.52402,-3.47278 1.93821,-0.009 3.86937,-0.91606 4.29149,-2.01606 1.28539,-3.34968 4.17585,-2.23442 4.31957,1.66666 0.0743,2.01667 1.44334,10.26667 3.04232,18.33334 1.599,8.06666 3.03822,17.66666 3.19827,21.33333 0.28437,6.515 0.2,6.67457 -3.709,7.01403 -2.2,0.19104 -4.9,-0.24976 -6,-0.97959 z m 134.49659,-3.70111 c -1.6585,-2.11474 -1.61134,-2.1619 0.50341,-0.50341 2.221,1.74183 2.92731,2.83675 1.82992,2.83675 -0.27687,0 -1.32687,-1.05 -2.33333,-2.33334 z m -9.33334,-9.33333 c -1.65849,-2.11475 -1.61133,-2.16191 0.50342,-0.50341 1.28333,1.00646 2.33333,2.05646 2.33333,2.33333 0,1.09739 -1.09492,0.39108 -2.83675,-1.82992 z m -12,-12 c -1.65849,-2.11475 -1.61133,-2.16191 0.50342,-0.50341 2.221,1.74182 2.9273,2.83674 1.82992,2.83674 -0.27687,0 -1.32687,-1.05 -2.33334,-2.33333 z m -109.71008,-36 c -0.41729,-2.01666 -1.6438,-9.06666 -2.72557,-15.66666 -1.08176,-6.6 -3.14363,-17.7 -4.58191,-24.66667 -3.00128,-14.53739 -6.81236,-39.39079 -6.81236,-44.42576 0,-1.87928 0.59834,-3.78665 1.32964,-4.23863 0.7313,-0.45196 6.5813,4.70196 13,11.45319 6.4187,6.75121 20.82036,21.36827 32.0037,32.48233 11.18333,11.11407 20.3306,20.77474 20.32725,21.46814 -0.005,1.07185 -49.07788,27.26073 -51.08115,27.26073 -0.38549,0 -1.0423,-1.65 -1.4596,-3.66667 z M 330.9966,582.99013 c -0.46895,-0.75879 -0.19902,-2.60091 0.59985,-4.09361 1.16276,-2.17264 1.01649,-2.88132 -0.73329,-3.55278 -1.5983,-0.61332 -1.98108,-1.8623 -1.42418,-4.64688 0.42111,-2.10553 0.1804,-3.80812 -0.53837,-3.80812 -1.89287,0 -1.59365,-3.65437 0.36667,-4.47817 1.19353,-0.50156 1.00428,-1.11967 -0.66667,-2.17736 -2.86341,-1.81251 -3.04665,-6.14611 -0.32431,-7.6696 1.70658,-0.95504 1.81503,-2.82184 0.72043,-12.39958 -0.70873,-6.2014 -2.28019,-16.37528 -3.49211,-22.60862 -1.21193,-6.23333 -2.38404,-13.43333 -2.60469,-16 -0.22065,-2.56666 -0.82321,-6.31666 -1.33903,-8.33333 -0.72434,-2.83201 -0.46509,-3.66667 1.13892,-3.66667 1.1422,0 2.4516,0.60652 2.90975,1.34784 0.45816,0.74131 2.44356,1.29818 4.41203,1.23748 1.96845,-0.0607 4.47901,0.1272 5.57901,0.41754 5.69152,1.50221 17.58099,3.58605 24.66667,4.32325 12.18981,1.26823 13.03761,1.67767 12.0091,5.7996 -0.48594,1.94753 -1.66582,4.44096 -2.62194,5.54096 -0.95614,1.1 -2.19192,3.5 -2.7462,5.33333 -0.55428,1.83334 -2.12526,4.76426 -3.49104,6.51315 -1.36579,1.74889 -2.48326,3.95285 -2.48326,4.89769 0,0.94484 -1.57465,3.58927 -3.49924,5.87651 -3.90393,4.63955 -3.69065,6.97409 0.24031,2.63044 3.48656,-3.8526 7.65613,-10.79271 13.96915,-23.25112 2.9728,-5.86667 6.6512,-12.76667 8.17424,-15.33333 1.52304,-2.56667 7.87508,-14.86667 14.11566,-27.33334 6.24058,-12.46666 11.47831,-22.82645 11.6394,-23.02175 0.75754,-0.91843 40.7422,40.23125 40.358,41.53389 -0.24136,0.81833 -4.01454,3.31776 -8.38484,5.55428 -4.3703,2.23653 -12.14601,6.36757 -17.27934,9.18009 -5.13334,2.81251 -19.72834,10.36336 -32.43332,16.77965 -12.705,6.41631 -24.105,13.05962 -25.33334,14.76291 -1.22834,1.70329 -7.67168,13.92172 -14.31853,27.15205 -11.28147,22.4554 -14.82947,27.30572 -17.18549,23.4936 z m -12.62406,-99.659 c -0.0579,-0.85669 -0.45057,-2.65669 -0.87261,-4 -0.7294,-2.32162 -0.69177,-2.32453 0.76104,-0.0588 0.8406,1.31096 1.23328,3.11096 0.8726,4 -0.47331,1.16666 -0.68505,1.18303 -0.76103,0.0588 z M 330.0972,372.55542 c -1.6585,-2.11475 -1.61134,-2.16191 0.50341,-0.50342 1.28333,1.00647 2.33333,2.05647 2.33333,2.33334 0,1.09738 -1.09492,0.39108 -2.83674,-1.82992 z m -34.49659,-33.74536 c 0,-0.77661 0.6,-1.0412 1.33333,-0.58797 0.73334,0.45322 1.33334,1.08864 1.33334,1.41202 0,0.32339 -0.6,0.58798 -1.33334,0.58798 -0.73333,0 -1.33333,-0.63542 -1.33333,-1.41203 z"
       id="path22"
       inkscape:connector-curvature="0"
       sodipodi:nodetypes="cscsccccscscsscsccscsssccscsssscccscccscsscsccsscccccccccscccscccscccssccscscccccscccscscscscsccccsssscsccccssscccsscccsczcssz" />
    <path
       style="fill:#a01d65;stroke-width:1.33333325"
       d="m 358.2407,743.52338 c -0.92754,-1.11761 -2.48901,-6.96761 -3.46994,-13 -2.19952,-13.52636 -2.20504,-12.52353 0.0689,-12.52353 1.97759,0 5.00745,11.43728 4.91559,18.55556 -0.0463,3.58556 2.7844,5.12862 4.45362,2.42777 0.42112,-0.6814 5.10654,-3.37719 10.41202,-5.99064 5.30549,-2.61347 10.54634,-5.28493 11.64634,-5.9366 1.1,-0.65168 5,-2.53407 8.66667,-4.18311 11.37904,-5.11756 11.3578,-5.64562 -0.70467,-17.51514 -5.84573,-5.75226 -10.62862,-10.78187 -10.62862,-11.17692 0,-0.83331 -22.99489,-23.68111 -33.11296,-32.90115 -3.78787,-3.45167 -6.88704,-7.1282 -6.88704,-8.17006 0,-1.04187 -0.91449,-2.65327 -2.03223,-3.5809 -3.09973,-2.57254 -1.3501,-3.0821 2.90832,-0.84702 4.76064,2.49868 67.12391,66.25354 67.12391,68.62173 0,0.69237 -0.75,1.85649 -1.66667,2.58694 -1.79214,1.42807 -48.47281,25.6651 -49.43116,25.6651 -0.31661,0 -1.33454,-0.91442 -2.26208,-2.03203 z m -5.7512,-28.1902 c -1.54648,-1.54647 -0.9637,-4.13043 1.11111,-4.92661 1.44492,-0.55447 2,0.14604 2,2.52401 0,3.20055 -1.30521,4.20851 -3.11111,2.4026 z m 126.92971,-7.73695 c -0.3442,-0.34421 -6.82116,-1.55636 -14.39323,-2.69366 -7.57208,-1.13731 -14.29045,-2.3911 -14.92972,-2.78619 -2.91608,-1.80223 -0.47048,-4.59296 7.83768,-8.94377 24.00162,-12.56918 46.125,-23.6172 47.29282,-23.6172 2.64533,0 -11.79283,11.95202 -16.29282,13.48733 -2.56666,0.87569 -7.66666,3.30788 -11.33333,5.40487 -3.66667,2.09698 -9.36667,5.10285 -12.66667,6.67969 l -6,2.867 7.72182,1.76217 c 4.247,0.96919 8.147,1.65156 8.66666,1.51639 2.5879,-0.67319 6.94486,2.06991 6.94486,4.3724 0,2.40779 -1.41912,3.37991 -2.84807,1.95097 z M 350.26728,704.2545 c 0,-1.57107 0.54876,-2.51732 1.21945,-2.10281 0.67069,0.41452 1.55496,-7e-5 1.96501,-0.92131 0.41006,-0.92124 0.61131,-0.22197 0.44722,1.55392 -0.37718,4.08205 -3.63168,5.39956 -3.63168,1.4702 z m -0.44444,-6.25465 c -1.54648,-1.54647 -0.96371,-4.13043 1.1111,-4.92662 1.44492,-0.55446 2,0.14604 2,2.52402 0,3.20054 -1.30521,4.2085 -3.1111,2.4026 z m -1.45578,-8.28298 c -0.41312,-0.66845 0.14542,-1.55941 1.2412,-1.9799 1.09579,-0.4205 1.99235,-0.21878 1.99235,0.44826 0,1.8074 -2.36947,2.92975 -3.23355,1.53164 z m 186.68672,-39.82813 c -0.41729,-2.01666 -1.6438,-9.06666 -2.72557,-15.66666 -1.08176,-6.6 -3.14363,-17.7 -4.58191,-24.66667 -3.00128,-14.53739 -6.81236,-39.39079 -6.81236,-44.42576 0,-1.87928 0.59834,-3.78665 1.32964,-4.23863 0.7313,-0.45196 6.5813,4.70196 13,11.45319 6.4187,6.75121 20.82036,21.36827 32.0037,32.48233 11.18333,11.11407 20.3306,20.77474 20.32725,21.46814 -0.005,1.07185 -49.07788,27.26073 -51.08115,27.26073 -0.38549,0 -1.0423,-1.65 -1.4596,-3.66667 z M 330.9966,582.99013 c -0.46895,-0.75879 -0.19902,-2.60091 0.59985,-4.09361 1.16276,-2.17264 1.01649,-2.88132 -0.73329,-3.55278 -1.5983,-0.61332 -1.98108,-1.8623 -1.42418,-4.64688 0.42111,-2.10553 0.1804,-3.80812 -0.53837,-3.80812 -1.89287,0 -1.59365,-3.65437 0.36667,-4.47817 1.19353,-0.50156 1.00428,-1.11967 -0.66667,-2.17736 -2.59881,-1.64501 -3.12176,-6.03315 -0.88383,-7.41627 3.36256,-2.07817 4.7059,2.87783 5.16946,19.0718 0.0869,3.03686 2.759,1.72699 4.0799,-2 0.71475,-2.01666 1.89455,-4.56666 2.62178,-5.66666 2.91268,-4.40568 8.66013,-15.59248 10.18996,-19.83364 0.89282,-2.47517 3.56044,-6.49893 5.92806,-8.94169 5.13427,-5.29723 8.70035,-10.94108 15.93822,-25.22467 2.9728,-5.86667 6.6512,-12.76667 8.17424,-15.33333 1.52304,-2.56667 7.87508,-14.86667 14.11566,-27.33334 6.24058,-12.46666 11.47831,-22.82645 11.6394,-23.02175 0.75754,-0.91843 40.7422,40.23125 40.358,41.53389 -0.24136,0.81833 -4.01454,3.31776 -8.38484,5.55428 -4.3703,2.23653 -12.14601,6.36757 -17.27934,9.18009 -5.13334,2.81251 -19.72834,10.36336 -32.43332,16.77965 -12.705,6.41631 -24.105,13.05962 -25.33334,14.76291 -1.22834,1.70329 -7.67168,13.92172 -14.31853,27.15205 -11.28147,22.4554 -14.82947,27.30572 -17.18549,23.4936 z"
       id="path20"
       inkscape:connector-curvature="0"
       sodipodi:nodetypes="sssccccccscscsssssccscccscsccccscscsccssccscccscccssccscscccccscscccsscscsccccsssc" />
  </g>
</svg>
