<?xml version="1.0" encoding="UTF-8" standalone="no"?>
<!-- Created with Inkscape (http://www.inkscape.org/) -->

<svg
   xmlns:dc="http://purl.org/dc/elements/1.1/"
   xmlns:cc="http://creativecommons.org/ns#"
   xmlns:rdf="http://www.w3.org/1999/02/22-rdf-syntax-ns#"
   xmlns:svg="http://www.w3.org/2000/svg"
   xmlns="http://www.w3.org/2000/svg"
   xmlns:sodipodi="http://sodipodi.sourceforge.net/DTD/sodipodi-0.dtd"
   xmlns:inkscape="http://www.inkscape.org/namespaces/inkscape"
   width="479.17496mm"
   height="147.29256mm"
   viewBox="0 0 479.17496 147.29256"
   version="1.1"
   id="svg8"
   inkscape:version="0.92.2 5c3e80d, 2017-08-06"
   sodipodi:docname="AlphaCleanLogo.svg">
  <defs
     id="defs2" />
  <sodipodi:namedview
     id="base"
     pagecolor="#ffffff"
     bordercolor="#666666"
     borderopacity="1.0"
     inkscape:pageopacity="0.0"
     inkscape:pageshadow="2"
     inkscape:zoom="11.451583"
     inkscape:cx="206.28666"
     inkscape:cy="539.21989"
     inkscape:document-units="mm"
     inkscape:current-layer="layer7"
     showgrid="false"
     inkscape:window-width="1920"
     inkscape:window-height="960"
     inkscape:window-x="1440"
     inkscape:window-y="1"
     inkscape:window-maximized="1"
     fit-margin-top="0"
     fit-margin-left="0"
     fit-margin-right="0"
     fit-margin-bottom="0">
    <inkscape:grid
       type="xygrid"
       id="grid821"
       originx="-7.5111803"
       originy="-117.7171" />
  </sodipodi:namedview>
  <metadata
     id="metadata5">
    <rdf:RDF>
      <cc:Work
         rdf:about="">
        <dc:format>image/svg+xml</dc:format>
        <dc:type
           rdf:resource="http://purl.org/dc/dcmitype/StillImage" />
        <dc:title />
      </cc:Work>
    </rdf:RDF>
  </metadata>
  <g
     inkscape:label="OvenOuter"
     inkscape:groupmode="layer"
     id="layer1"
     transform="translate(-7.5111791,-31.990352)"
     style="display:inline">
    <rect
       style="opacity:0.98999999;fill:#da4808;fill-opacity:1;stroke:#000000;stroke-width:0.93195409;stroke-miterlimit:4;stroke-dasharray:none;stroke-opacity:1"
       id="rect823"
       width="109.04839"
       height="146.3606"
       x="6.9324431"
       y="32.456329"
       ry="8.8646822" />
  </g>
  <g
     inkscape:groupmode="layer"
     id="layer2"
     inkscape:label="OvenInner"
     transform="translate(-7.5111791,-31.990352)"
     style="display:inline">
    <rect
       style="opacity:0.98999999;fill:#ffffff;fill-opacity:0.98571424;stroke:#000000;stroke-width:0.75969464;stroke-miterlimit:4;stroke-dasharray:none;stroke-opacity:1"
       id="rect827"
       width="90.720337"
       height="72.368889"
       x="17.141184"
       y="97.991692"
       ry="5.4173059" />
    <rect
       style="opacity:0.98999999;fill:#ffffff;fill-opacity:1;stroke:#000000;stroke-width:0.58014798;stroke-miterlimit:4;stroke-dasharray:none;stroke-opacity:1"
       id="rect827-7"
       width="90.872551"
       height="42.133091"
       x="17.065077"
       y="46.092213"
       ry="3.4473765" />
    <path
       style="display:inline;fill:none;stroke:#000000;stroke-width:1;stroke-linecap:butt;stroke-linejoin:miter;stroke-miterlimit:4;stroke-dasharray:none;stroke-opacity:1"
       d="m 17.231947,122.02653 90.538813,0.10015"
       id="path949"
       inkscape:connector-curvature="0" />
    <path
       style="display:inline;fill:none;stroke:#000000;stroke-width:1;stroke-linecap:butt;stroke-linejoin:miter;stroke-miterlimit:4;stroke-dasharray:none;stroke-opacity:1"
       d="m 17.207407,146.1875 90.587893,0.17634"
       id="path951"
       inkscape:connector-curvature="0"
       sodipodi:nodetypes="cc" />
    <path
       style="display:inline;fill:none;stroke:#000000;stroke-width:1;stroke-linecap:butt;stroke-linejoin:miter;stroke-miterlimit:4;stroke-dasharray:none;stroke-opacity:1"
       d="m 17.231923,67.108683 90.538857,0.10015"
       id="path949-0"
       inkscape:connector-curvature="0" />
  </g>
  <g
     inkscape:groupmode="layer"
     id="layer7"
     inkscape:label="nobs"
     style="display:inline"
     transform="translate(-40.311272,-0.07368424)">
    <circle
       style="display:inline;opacity:1;fill:#ffffff;fill-opacity:1;stroke:#000a0a;stroke-width:0.78423798;stroke-miterlimit:4;stroke-dasharray:none;stroke-opacity:1"
       id="path905"
       cx="68.894569"
       cy="-6.6480598"
       r="4.1078811"
       transform="scale(1,-1)" />
    <circle
       style="display:inline;opacity:1;fill:#ffffff;fill-opacity:1;stroke:#000a0a;stroke-width:0.78423798;stroke-miterlimit:4;stroke-dasharray:none;stroke-opacity:1"
       id="path905-9"
       cx="80.847984"
       cy="-6.6480598"
       r="4.1078811"
       transform="scale(1,-1)" />
    <circle
       style="display:inline;opacity:1;fill:#ffffff;fill-opacity:1;stroke:#000a0a;stroke-width:0.78423798;stroke-miterlimit:4;stroke-dasharray:none;stroke-opacity:1"
       id="path905-3"
       cx="109.75484"
       cy="-6.6480598"
       r="4.1078811"
       transform="scale(1,-1)" />
    <circle
       style="display:inline;opacity:1;fill:#ffffff;fill-opacity:1;stroke:#000a0a;stroke-width:0.78423798;stroke-miterlimit:4;stroke-dasharray:none;stroke-opacity:1"
       id="path905-8"
       cx="121.70833"
       cy="-6.6480598"
       r="4.1078811"
       transform="scale(1,-1)" />
    <rect
       style="display:inline;opacity:1;fill:#ffffff;fill-opacity:1;stroke:#000a0a;stroke-width:0.5357309;stroke-miterlimit:4;stroke-dasharray:none;stroke-opacity:1"
       id="rect934"
       width="13.464269"
       height="7.0018334"
       x="88.476875"
       y="3.1240387" />
    <g
       aria-label="A:C"
       style="font-style:normal;font-variant:normal;font-weight:normal;font-stretch:normal;font-size:16.68085861px;line-height:1.25;font-family:'.Lucida Grande UI';-inkscape-font-specification:'.Lucida Grande UI';letter-spacing:0px;word-spacing:0px;display:inline;fill:#008900;fill-opacity:1;stroke:none;stroke-width:0.41702142"
       id="text938">
      <path
         d="M 92.972137,7.1446028 92.219543,5.2392275 91.463964,7.1446028 Z m 0.662999,1.6903486 -0.480824,-1.2244575 h -1.872524 l -0.486796,1.2244575 h -0.582364 l 1.753065,-4.4199928 h 0.621188 l 1.726186,4.4199928 z"
         style="font-size:6.11631441px;fill:#008900;fill-opacity:1;stroke-width:0.41702142"
         id="path846" />
      <path
         d="m 94.961134,8.8349514 v -0.737661 h 0.737661 v 0.737661 z m 0,-2.5056581 v -0.737661 h 0.737661 v 0.737661 z"
         style="font-size:6.11631441px;fill:#008900;fill-opacity:1;stroke-width:0.41702142"
         id="path848" />
      <path
         d="m 98.777858,8.9454512 q -1.030337,0 -1.591795,-0.6032693 -0.561459,-0.6062557 -0.561459,-1.7142404 0,-1.1049982 0.570418,-1.7142405 0.573405,-0.6092423 1.6127,-0.6092423 0.59431,0 1.391698,0.1941214 v 0.5883368 q -0.907888,-0.3135805 -1.400657,-0.3135805 -0.719742,0 -1.113958,0.4867965 -0.394215,0.4867965 -0.394215,1.3737815 0,0.8451743 0.421094,1.3349573 0.421093,0.4867965 1.149795,0.4867965 0.627161,0 1.343921,-0.3852561 v 0.5375667 q -0.654044,0.3374724 -1.427542,0.3374724 z"
         style="font-size:6.11631441px;fill:#008900;fill-opacity:1;stroke-width:0.41702142"
         id="path850" />
    </g>
  </g>
  <g
     inkscape:groupmode="layer"
     id="layer5"
     inkscape:label="Text"
     transform="translate(-7.5111791,-31.990352)"
     style="display:inline">
    <g
       aria-label="ALPHA"
       transform="matrix(0.80231283,0.00111219,-0.00111219,0.80231283,67.168186,-130.42867)"
       style="font-style:normal;font-variant:normal;font-weight:normal;font-stretch:normal;font-size:96px;line-height:1.25;font-family:'.Lucida Grande UI';-inkscape-font-specification:'.Lucida Grande UI';letter-spacing:0px;word-spacing:0px;fill:#da4808;fill-opacity:1;stroke:none"
       id="flowRoot880">
      <path
         d="m 124.10938,254.10494 -11.8125,-29.90625 -11.85938,29.90625 z m 10.40624,26.53125 -7.54687,-19.21875 H 97.578125 L 89.9375,280.63619 h -9.140625 l 27.515625,-69.375 h 9.75 l 27.09375,69.375 z"
         style=""
         id="path851" />
      <path
         d="m 155.14062,280.63619 v -69.375 h 9.84375 v 62.01562 h 31.21875 v 7.35938 z"
         style=""
         id="path853" />
      <path
         d="m 206.32812,280.63619 v -69.375 h 18.89063 q 12.5625,0 18.04687,4.26562 5.48438,4.21875 5.48438,13.92188 0,11.0625 -7.5,17.34375 -7.5,6.28125 -20.8125,6.28125 h -4.35938 v 27.5625 z m 9.75,-35.01563 h 3.98438 q 8.76562,0 13.54687,-4.03125 4.78125,-4.03125 4.78125,-11.39062 0,-6.23438 -3.75,-8.90625 -3.75,-2.67188 -12.51562,-2.67188 h -6.04688 z"
         style=""
         id="path855" />
      <path
         d="m 259.39062,280.63619 v -69.375 h 9.84375 v 29.25 h 33 v -29.25 h 9.84375 v 69.375 h -9.84375 v -32.76563 h -33 v 32.76563 z"
         style=""
         id="path857" />
      <path
         d="m 365.04687,254.10494 -11.8125,-29.90625 -11.85937,29.90625 z m 10.40625,26.53125 -7.54687,-19.21875 h -29.39063 l -7.64062,19.21875 h -9.14063 L 349.25,211.26119 H 359 l 27.09375,69.375 z"
         style=""
         id="path859" />
    </g>
    <g
       aria-label="CLEANING"
       style="font-style:normal;font-variant:normal;font-weight:normal;font-stretch:normal;font-size:73.80180359px;line-height:1.25;font-family:'.Lucida Grande UI';-inkscape-font-specification:'.Lucida Grande UI';letter-spacing:0px;word-spacing:0px;fill:#da4808;fill-opacity:1;stroke:none;stroke-width:1.84504473"
       id="text890">
      <path
         d="m 157.53078,162.24196 q -12.43243,0 -19.20721,-7.27928 -6.77477,-7.31531 -6.77477,-20.68468 0,-13.33333 6.88288,-20.68469 6.91892,-7.35135 19.45946,-7.35135 7.17117,0 16.79279,2.34234 v 7.0991 q -10.95495,-3.78378 -16.9009,-3.78378 -8.68468,0 -13.44144,5.87387 -4.75676,5.87388 -4.75676,16.57658 0,10.1982 5.08108,16.10811 5.08108,5.87387 13.87388,5.87387 7.56757,0 16.21621,-4.64865 v 6.48649 q -7.89189,4.07207 -17.22522,4.07207 z"
         style="fill:#da4808;fill-opacity:1;stroke-width:1.84504473"
         id="path862" />
      <path
         d="M 185.71096,160.90863 V 107.5753 h 7.56757 v 47.67567 h 24 v 5.65766 z"
         style="fill:#da4808;fill-opacity:1;stroke-width:1.84504473"
         id="path864" />
      <path
         d="M 225.06231,160.90863 V 107.5753 h 29.8018 v 5.65765 h -22.23423 v 17.11712 h 18.63063 v 5.58559 h -18.63063 v 19.31531 h 23.78378 v 5.65766 z"
         style="fill:#da4808;fill-opacity:1;stroke-width:1.84504473"
         id="path866" />
      <path
         d="m 292.16141,140.51223 -9.08108,-22.99099 -9.11711,22.99099 z m 8,20.3964 -5.8018,-14.77477 h -22.59459 l -5.87388,14.77477 h -7.02702 l 21.15315,-53.33333 h 7.49549 l 20.82883,53.33333 z"
         style="fill:#da4808;fill-opacity:1;stroke-width:1.84504473"
         id="path868" />
      <path
         d="M 316.01727,160.90863 V 107.5753 h 7.42343 l 26.84685,41.18919 V 107.5753 h 6.48648 v 53.33333 h -7.38738 l -26.88289,-41.18919 v 41.18919 z"
         style="fill:#da4808;fill-opacity:1;stroke-width:1.84504473"
         id="path870" />
      <path
         d="M 370.46772,160.90863 V 107.5753 h 7.56757 v 53.33333 z"
         style="fill:#da4808;fill-opacity:1;stroke-width:1.84504473"
         id="path872" />
      <path
         d="M 391.8371,160.90863 V 107.5753 h 7.42342 l 26.84685,41.18919 V 107.5753 h 6.48649 v 53.33333 h -7.38739 l -26.88288,-41.18919 v 41.18919 z"
         style="fill:#da4808;fill-opacity:1;stroke-width:1.84504473"
         id="path874" />
      <path
         d="m 486.39565,159.46719 q -9.69369,2.77477 -16.9009,2.77477 -12.72072,0 -19.53153,-7.24324 -6.77478,-7.24324 -6.77478,-20.75676 0,-13.26126 6.88289,-20.61261 6.88288,-7.38739 19.31531,-7.38739 8.14415,0 16.93694,2.41442 v 6.99099 q -11.02703,-3.74775 -16.9009,-3.74775 -8.64865,0 -13.44144,5.87387 -4.75676,5.87388 -4.75676,16.54055 0,10.55855 5.11712,16.43243 5.11712,5.83784 14.34234,5.83784 3.78378,0 8.18018,-1.33334 V 137.8816 h 7.53153 z"
         style="fill:#da4808;fill-opacity:1;stroke-width:1.84504473"
         id="path876" />
    </g>
  </g>
</svg>
