<?xml version="1.0" encoding="UTF-8"?>
<svg width="75px" height="22px" viewBox="0 0 75 22" version="1.1" xmlns="http://www.w3.org/2000/svg" xmlns:xlink="http://www.w3.org/1999/xlink">
    <!-- Generator: Sketch 48.2 (47327) - http://www.bohemiancoding.com/sketch -->
    <title>Dreams logo - dark</title>
    <desc>Created with Sketch.</desc>
    <defs></defs>
    <g id="M---20.8_Select-delivery-address-(returning-customer)" stroke="none" stroke-width="1" fill="none" fill-rule="evenodd" transform="translate(-20.000000, -19.000000)">
        <g id="Patterns-/-Mobile-/-Navigation-bar---light" fill-rule="nonzero">
            <g id="Logo-bar">
                <g>
                    <g id="logo" transform="translate(20.000000, 19.000000)">
                        <g id="Dreams-logo---dark">
                            <g id="Shape">
                                <path d="M8.7981896,0.0764282037 C8.16528251,0.0764282037 0,0 0,0 L0,0.909495626 C0,0.909495626 1.17205012,0.817781781 1.5158515,1.03178076 C1.85965286,1.24577972 2.27377724,1.52856408 2.27377724,2.20877509 L2.27377724,12.8475811 C2.27377724,12.8475811 2.11750389,13.4360782 1.70337951,13.6806485 C1.28925514,13.9252187 0.820435088,13.9557901 0.562584058,13.9863613 C0.312546698,14.0169326 0.117205012,13.9863613 0.117205012,13.9863613 L0.117205012,14.85 L10.3687367,14.85 C10.3687367,14.85 17.5182425,14.5442872 17.5182425,7.58167784 C17.5260562,0.634354095 9.43109664,0.0764282037 8.7981896,0.0764282037 L8.7981896,0.0764282037 Z M10.4546871,13.0921513 C10.0718174,13.275579 8.66535724,13.8411477 7.32922011,13.5507206 C6.39158,13.3443644 5.88369162,12.0527278 5.88369162,12.0527278 L5.88369162,1.64320638 C5.97745563,1.26870818 6.64943102,1.26870818 6.64943102,1.26870818 C6.64943102,1.26870818 9.14199097,1.28399383 10.5015691,2.0253474 C11.8611472,2.76670098 14.1427382,4.1959084 14.0646015,7.7192486 C14.0099058,10.722877 11.4313956,12.6259393 10.4546871,13.0921513 L10.4546871,13.0921513 Z" fill="#3A356D"></path>
                                <path d="M21.5200067,4.45653014 C21.5200067,4.45653014 18.7654502,5.11874034 18.4976461,5.21564914 C18.229842,5.31255795 18.0309018,5.80517774 18.3216605,6.01514684 C18.6124193,6.22511594 18.8343141,6.27357034 18.8343141,6.70158425 L18.8343141,13.2187017 C18.8343141,13.2187017 18.8343141,13.7597759 18.56651,13.9051391 C18.2987059,14.0505024 17.5182482,14.1877898 17.5182482,14.1877898 L17.5182482,14.85 L23.402287,14.85 L23.402287,14.1393354 C23.402287,14.1393354 22.3769799,14.090881 22.239252,13.9293663 C22.1015242,13.7678517 21.8796294,13.7840031 21.8796294,12.3222952 L21.8796294,8.17136787 C21.8796294,8.17136787 22.2162974,6.47546367 23.1574376,6.47546367 C24.0985777,6.47546367 23.7160004,7.08921947 24.2516087,7.46877898 C24.7872169,7.84833848 25.797221,7.65452087 26.0420704,7.13767387 C26.2869199,6.62082688 26.6694972,5.13489182 25.2157035,4.52113602 C25.2157035,4.52113602 24.9478993,4.4 24.4964581,4.4 C24.0450169,4.4 23.402287,4.70687791 23.1344829,4.94107421 C22.8666788,5.17527051 21.7954624,6.62082688 21.7954624,6.62082688 L21.6271284,6.79849305 L21.6271284,4.49690882 C21.6271284,4.48075733 21.7036438,4.64227202 21.5200067,4.45653014 L21.5200067,4.45653014 Z" fill="#3A356D"></path>
                                <path d="M72.8363972,8.76930982 C71.4277206,8.276652 69.4119901,7.93744492 69.3108143,6.69368577 C69.2407699,5.86989721 70.198047,5.51453744 70.8595803,5.49030837 C71.4744171,5.51453744 72.1359503,5.77298091 72.6106978,6.45947137 C73.0854452,7.14596183 73.295579,7.63861969 73.295579,7.63861969 L73.9104158,7.63861969 L73.9104158,4.70690161 L73.2255346,4.70690161 C73.2255346,4.70690161 73.2488825,5.17533041 73.1788381,5.2722467 C73.1087932,5.369163 72.9764866,5.45800295 72.8130488,5.29647578 C72.6496114,5.1349486 72.1048195,4.42422908 70.6961429,4.42422908 C70.3537021,4.42422908 68.4469301,4.47268723 67.598611,5.62760647 C66.7580747,6.78252572 66.7580747,7.3963289 66.7580747,7.89706316 C66.7580747,8.38972098 66.8748156,9.9 68.5325402,10.6107195 C70.1902642,11.3214391 71.4666343,11.5798825 71.8090751,11.838326 C72.151516,12.0967695 72.330519,12.4521292 72.3071705,12.7832599 C72.2838226,13.1143906 71.8946852,14.1723935 70.781753,14.1966226 C69.6688203,14.2208517 68.8049361,13.7039647 68.4157988,13.1547724 C68.0266615,12.6136564 67.6453075,11.6202643 67.6453075,11.6202643 L66.9837742,11.6202643 L66.9837742,13.2759177 C66.9837742,13.2759177 66.9759914,13.8331865 66.4545475,14.0431718 C66.1043238,14.1885463 65.2560052,14.2693098 65.0458709,13.8493392 C64.8435194,13.4212922 64.8435194,13.1143906 64.8435194,13.1143906 L64.8435194,6.87944201 C64.8435194,6.87944201 64.5010791,4.42422908 61.8393804,4.42422908 C59.1776822,4.42422908 58.4149732,6.64522762 58.4149732,6.64522762 C58.4149732,6.64522762 57.8935299,4.44845815 55.4108347,4.44845815 C52.928139,4.44845815 52.0876028,6.64522762 52.0876028,6.64522762 L52.0876028,4.4 C52.0876028,4.4 49.7683454,4.85227606 48.7643715,5.17533041 C47.8615732,5.47415563 47.9938799,5.88604994 48.2429277,6.16872248 C48.4919754,6.45139503 49.1768569,6.85521294 49.1768569,7.23480178 C49.1768569,7.61439062 49.1301604,13.0417033 49.1301604,13.0417033 C49.1301604,13.0417033 48.9745056,13.7524229 48.6787613,13.9866373 C48.4374963,14.1804699 47.6358737,14.3662261 47.2233883,14.2935389 C46.8109029,14.2208517 45.8847564,13.776652 45.8847564,13.3001468 L45.8847564,6.5725404 C45.8847564,6.5725404 45.744667,4.44845815 41.7910333,4.44845815 C37.8373996,4.44845815 37.4482624,6.43524229 37.4482624,6.87944201 C37.4482624,7.33171808 37.6272655,8.29280468 38.856939,8.29280468 C40.0866125,8.29280468 40.2656156,6.49985317 40.3823567,6.33024961 C40.4990979,6.16872248 40.7247974,5.5064611 41.6820749,5.5064611 C42.6393523,5.5064611 42.8417037,6.35447873 42.8417037,6.83098387 C42.8417037,7.307489 42.8884001,7.75168867 42.7249625,8.01013214 C42.5693076,8.26857561 39.6274306,9.14082232 38.0630991,10.3926579 C36.490985,11.6444934 35.9928894,12.6621145 35.2223978,13.1305433 C34.4519061,13.5989721 33.6269353,13.9301028 32.607396,13.7443465 C31.5878565,13.5585903 30.6072308,12.3552129 30.4904897,11.523348 C30.3737486,10.6995595 30.4048795,9.64155653 30.4048795,9.64155653 C30.4048795,9.64155653 33.1288397,9.65770926 33.7436765,9.60925111 C34.3585132,9.56079296 36.5610297,9.77077824 36.5610297,8.12320117 C36.5610297,6.4756241 35.6737969,4.36769457 31.7357287,4.46461087 C31.7357287,4.46461087 26.8248175,4.95726874 26.8248175,9.77885463 C26.8248175,14.6004405 31.05863,15.4 31.9458628,15.4 C32.8330955,15.4 34.1328137,15.2788546 35.5648385,14.1723935 C36.6388571,13.3405286 36.9968633,12.6863436 36.9968633,12.6863436 C36.9968633,12.6863436 36.9735151,15.2627019 39.5885169,15.2627019 C39.5885169,15.2627019 40.1800054,15.4484581 41.3629824,14.7942731 C42.5459594,14.1320117 42.8417037,13.6393539 42.8417037,13.6393539 C42.8417037,13.6393539 42.8884001,14.4873715 43.68224,14.8427313 C44.4760798,15.198091 45.9081046,15.198091 45.9081046,15.198091 L47.6592219,15.0365638 L53.4340178,15.0365638 L53.4340178,14.2612335 C53.4340178,14.2612335 52.1809957,14.4227607 52.1809957,13.033627 L52.1809957,7.91321585 C52.1809957,7.91321585 53.2083178,6.07988253 54.0722025,6.07988253 C54.9360873,6.07988253 55.5742721,7.02481646 55.5742721,7.46901613 L55.5742721,13.1790015 C55.5742721,13.1790015 55.5742721,13.6716593 55.1617868,13.9381791 C54.7493014,14.1966226 54.274554,14.2935389 54.274554,14.2935389 L54.274554,15.0527166 L59.8469983,15.0527166 L59.8469983,14.228928 C59.8469983,14.228928 58.9831136,14.1804699 58.7807626,13.6878121 C58.5784111,13.1951542 58.5317146,12.9770925 58.5317146,12.5328928 L58.5317146,8.30895742 C58.5317146,8.30895742 59.099855,6.03950072 60.4851831,6.03950072 C61.8705117,6.03950072 61.9172082,7.54977974 61.9172082,7.69515418 L61.9172082,13.3647577 C61.9172082,13.3647577 61.8705117,13.7685756 61.5047229,13.9543319 C61.1389335,14.1400881 60.6641861,14.2612335 60.6641861,14.2612335 L60.6641861,15.0365638 L66.5790712,15.0365638 C66.5790712,15.0365638 67.2483873,15.0446402 67.5830453,14.4954479 C67.8243105,14.09163 67.8554413,14.115859 67.8554413,14.115859 C67.8554413,14.115859 68.6259331,15.3434655 71.0852798,15.3434655 C73.5446269,15.3434655 75,13.461674 75,11.9756241 C75,10.4895742 74.2528567,9.26196769 72.8363972,8.76930982 L72.8363972,8.76930982 Z M32.0703866,5.60337739 C33.6891973,5.60337739 33.9849415,7.23480178 33.9849415,7.51747432 C33.9849415,7.80014682 34.1639447,8.13127751 33.8448522,8.31703376 C33.5257597,8.50279001 32.0703866,8.55124816 31.6812495,8.52701908 C31.2921123,8.50279001 30.3426176,8.50279001 30.3426176,8.50279001 C30.3426176,8.50279001 30.1636145,5.60337739 32.0703866,5.60337739 L32.0703866,5.60337739 Z M42.8572692,12.403671 C42.8339209,12.6378854 42.468132,12.9447871 42.1723877,13.1790015 C41.8766435,13.4132158 41.5342028,13.5101321 41.2384585,13.4132158 C40.9427142,13.3162996 40.5224461,13.0578561 40.4212704,12.3309838 C40.3045293,11.5556535 40.374574,11.2245228 40.7170147,10.6753304 C41.1606311,9.97268722 42.8105727,9.28619676 42.8105727,9.28619676 C42.8105727,9.28619676 42.8806174,12.1694567 42.8572692,12.403671 L42.8572692,12.403671 Z" fill="#3A356D"></path>
                                <path d="M0.00617764604,19.0405972 C0.00617764604,19.0405972 5.99142606,16.6859324 16.0033992,16.5123514 C26.0153724,16.3387703 36.2780366,18.0443929 39.693702,18.512307 C43.1172014,18.9802211 49.4941546,19.5160583 52.1185764,19.5236053 C56.9443789,19.5386993 63.2038205,19.2292723 66.9093476,18.7311701 C68.9383781,18.459478 73.6388348,17.3953507 74.3752395,17.2142226 C75.1116447,17.0406416 75.2291559,17.3878036 74.5554241,17.7425127 C73.8816918,18.0972219 67.7789318,20.2707585 63.8697186,20.7990487 C59.9605054,21.3273389 53.1840131,22.1499621 48.6010678,21.9763811 C44.0181223,21.8028001 43.7752654,21.742424 43.7752654,21.742424 C43.7752654,21.742424 32.2434778,20.5650917 29.9872585,20.0971775 C27.7310392,19.6292634 19.0273599,18.8594691 16.308929,18.451931 C15.5333536,18.331179 13.425982,18.2028799 13.425982,18.2028799 L12.6895771,18.2481619 C12.6895771,18.2481619 11.5457993,18.1123159 5.86608057,18.512307 C3.97022962,18.6406061 -0.18184063,19.9839725 0.00617764604,19.0405972 L0.00617764604,19.0405972 Z" fill="#E36293"></path>
                            </g>
                        </g>
                    </g>
                </g>
            </g>
        </g>
    </g>
</svg>