<?xml version="1.0" encoding="UTF-8" standalone="no"?>
<!-- Created with Inkscape (http://www.inkscape.org/) -->

<svg
   xmlns:dc="http://purl.org/dc/elements/1.1/"
   xmlns:cc="http://creativecommons.org/ns#"
   xmlns:rdf="http://www.w3.org/1999/02/22-rdf-syntax-ns#"
   xmlns:svg="http://www.w3.org/2000/svg"
   xmlns="http://www.w3.org/2000/svg"
   xmlns:sodipodi="http://sodipodi.sourceforge.net/DTD/sodipodi-0.dtd"
   xmlns:inkscape="http://www.inkscape.org/namespaces/inkscape"
   version="1.1"
   id="svg2"
   xml:space="preserve"
   width="487.33334"
   height="487.33334"
   viewBox="0 0 487.33334 487.33334"
   sodipodi:docname="Bootstrap-logo.svg"
   inkscape:version="0.92.2 2405546, 2018-03-11"><metadata
     id="metadata8"><rdf:RDF><cc:Work
         rdf:about=""><dc:format>image/svg+xml</dc:format><dc:type
           rdf:resource="http://purl.org/dc/dcmitype/StillImage" /><dc:title></dc:title></cc:Work></rdf:RDF></metadata><defs
     id="defs6" /><sodipodi:namedview
     pagecolor="#ffffff"
     bordercolor="#666666"
     borderopacity="1"
     objecttolerance="10"
     gridtolerance="10"
     guidetolerance="10"
     inkscape:pageopacity="0"
     inkscape:pageshadow="2"
     inkscape:window-width="640"
     inkscape:window-height="480"
     id="namedview4"
     showgrid="false"
     inkscape:zoom="0.48426812"
     inkscape:cx="243.66667"
     inkscape:cy="243.66667"
     inkscape:window-x="0"
     inkscape:window-y="0"
     inkscape:window-maximized="0"
     inkscape:current-layer="g10" /><g
     id="g10"
     inkscape:groupmode="layer"
     inkscape:label="ink_ext_XXXXXX"
     transform="matrix(1.3333333,0,0,-1.3333333,0,487.33333)"><g
       id="g12"
       transform="scale(0.1)"><path
         d="M 3655,609.172 C 3655,274.129 3380.87,0 3045.83,0 H 609.168 C 274.125,0 0,274.129 0,609.172 V 3045.83 C 0,3380.88 274.125,3655 609.168,3655 H 3045.83 C 3380.87,3655 3655,3380.88 3655,3045.83 V 609.172"
         style="fill:#4e367e;fill-opacity:1;fill-rule:nonzero;stroke:none"
         id="path14"
         inkscape:connector-curvature="0" /><path
         d="m 1366.44,1033.19 h 659.93 c 113.48,0 201.87,29.27 263.98,88.39 62.71,58.53 94.36,142.14 94.36,249.64 0,105.71 -31.06,186.34 -94.36,243.67 -63.31,57.33 -150.5,84.8 -263.98,84.8 h -659.93 z m 0,934.66 h 609.17 c 89.58,0 164.24,25.08 223.96,76.44 59.72,51.36 89.58,124.22 89.58,219.78 0,107.5 -26.87,183.35 -80.62,226.94 -53.75,43.6 -131.39,65.7 -232.92,65.7 H 1366.44 V 1967.85 Z M 993.18,2860.7 h 1036.18 c 191.11,0 344.6,-43.6 459.86,-131.4 115.27,-87.79 173.2,-219.77 173.2,-397.15 0,-107.5 -26.28,-199.47 -78.84,-275.91 -52.55,-76.45 -127.8,-136.17 -225.75,-177.98 v -5.97 c 131.39,-28.07 231.13,-90.18 298.61,-186.33 67.49,-96.75 101.53,-217.39 101.53,-363.11 0,-83.61 -14.93,-161.85 -44.79,-234.11 -29.86,-72.87 -76.44,-135.568 -140.35,-188.131 -63.9,-52.55 -145.12,-94.359 -244.86,-125.418 -99.73,-31.05 -217.98,-46.582 -355.35,-46.582 H 993.18 v 2132.091 0"
         style="fill:#ffffff;fill-opacity:1;fill-rule:nonzero;stroke:none"
         id="path16"
         inkscape:connector-curvature="0" /></g></g></svg>