<?xml version="1.0" encoding="UTF-8" standalone="no"?>
<!-- Created with Inkscape (http://www.inkscape.org/) -->

<svg
   xmlns:dc="http://purl.org/dc/elements/1.1/"
   xmlns:cc="http://creativecommons.org/ns#"
   xmlns:rdf="http://www.w3.org/1999/02/22-rdf-syntax-ns#"
   xmlns:svg="http://www.w3.org/2000/svg"
   xmlns="http://www.w3.org/2000/svg"
   xmlns:sodipodi="http://sodipodi.sourceforge.net/DTD/sodipodi-0.dtd"
   xmlns:inkscape="http://www.inkscape.org/namespaces/inkscape"
   width="317.5mm"
   height="220.44586mm"
   viewBox="0 0 317.5 220.44586"
   version="1.1"
   id="svg8"
   inkscape:version="0.92.2 2405546, 2018-03-11"
   sodipodi:docname="work-background.svg">
  <defs
     id="defs2" />
  <sodipodi:namedview
     id="base"
     pagecolor="#ffffff"
     bordercolor="#666666"
     borderopacity="1.0"
     inkscape:pageopacity="0.0"
     inkscape:pageshadow="2"
     inkscape:zoom="0.61811284"
     inkscape:cx="533.66907"
     inkscape:cy="416.59061"
     inkscape:document-units="mm"
     inkscape:current-layer="layer1"
     showgrid="false"
     inkscape:window-width="1366"
     inkscape:window-height="695"
     inkscape:window-x="0"
     inkscape:window-y="0"
     inkscape:window-maximized="1"
     fit-margin-top="0"
     fit-margin-left="0"
     fit-margin-right="0"
     fit-margin-bottom="0" />
  <metadata
     id="metadata5">
    <rdf:RDF>
      <cc:Work
         rdf:about="">
        <dc:format>image/svg+xml</dc:format>
        <dc:type
           rdf:resource="http://purl.org/dc/dcmitype/StillImage" />
        <dc:title />
      </cc:Work>
    </rdf:RDF>
  </metadata>
  <g
     inkscape:label="Layer 1"
     inkscape:groupmode="layer"
     id="layer1"
     transform="translate(-9.5912309,-52.402614)">
    <path
       style="fill:#ffff00;stroke:none;stroke-width:0.06577569px;stroke-linecap:butt;stroke-linejoin:miter;stroke-opacity:1"
       d="M 48.564772,62.33097 C 73.935589,49.252363 103.20419,49.816864 129.2435,60.041073 147.06616,66.355814 164.4061,74.27511 182.19098,80.721154 212.813,61.579178 250.05514,46.68158 284.6537,60.449388 c 30.68165,11.624969 51.18024,53.457572 38.68018,88.431482 -5.57498,16.21223 -20.35024,26.49453 -35.40753,27.09199 20.97421,4.5201 38.50715,27.01328 35.7358,51.92812 -1.19899,29.58048 -30.28867,53.06507 -55.10904,42.22251 -24.03529,-11.04312 -43.35823,-35.01408 -70.38219,-37.50142 -28.48965,-3.63055 -54.92773,12.68635 -78.25279,29.17975 -15.07033,8.33233 -34.463095,16.7368 -50.063416,5.75524 -12.614517,-10.53823 -7.089146,-30.34478 -1.832092,-43.81715 7.465437,-19.14829 23.677539,-33.03303 41.735458,-36.92156 -23.735502,7.56634 -51.225062,13.11746 -73.238559,-3.10972 C 12.249019,167.14917 2.9980784,129.77516 14.598561,100.83296 20.881469,83.64705 33.108381,69.020776 48.564772,62.33097 Z"
       id="path20"
       inkscape:connector-curvature="0" />
  </g>
</svg>
